HIERARCHY
ROOT Hips
{
	OFFSET 0.000000 0.000000 0.000000
	CHANNELS 6 Xposition Yposition Zposition Xrotation Yrotation Zrotation
	JOINT LeftUpLeg_virtual
	{
		OFFSET 0.000000 0.000000 0.000000
		CHANNELS 3 Xrotation Yrotation Zrotation
		JOINT LeftUpLeg
		{
			OFFSET 10.205400 -3.823500 0.155100
			CHANNELS 3 Xrotation Yrotation Zrotation
			JOINT LeftLeg
			{
				OFFSET 0.708757 -12.982077 0.567790
				CHANNELS 3 Xrotation Yrotation Zrotation
				JOINT LeftFoot
				{
					OFFSET -0.708756 -10.717838 -2.184338
					CHANNELS 3 Xrotation Yrotation Zrotation
					JOINT LeftToeBase
					{
						OFFSET 0.108149 -7.191104 7.560241
						CHANNELS 3 Xrotation Yrotation Zrotation
						JOINT LeftToe_End
						{
							OFFSET 0.070230 0.081724 4.490308
							CHANNELS 3 Xrotation Yrotation Zrotation
							End Site
							{
								OFFSET 0 0 0
							}
						}
					}
				}
			}
		}
	}
	JOINT RightUpLeg_virtual
	{
		OFFSET 0.000000 0.000000 0.000000
		CHANNELS 3 Xrotation Yrotation Zrotation
		JOINT RightUpLeg
		{
			OFFSET -10.205400 -3.823500 0.005500
			CHANNELS 3 Xrotation Yrotation Zrotation
			JOINT RightLeg
			{
				OFFSET -0.708756 -12.982134 0.610632
				CHANNELS 3 Xrotation Yrotation Zrotation
				JOINT RightFoot
				{
					OFFSET 0.708754 -10.717769 -1.945823
					CHANNELS 3 Xrotation Yrotation Zrotation
					JOINT RightToeBase
					{
						OFFSET -0.108140 -7.191069 7.372968
						CHANNELS 3 Xrotation Yrotation Zrotation
						JOINT RightToe_End
						{
							OFFSET -0.070227 0.081735 4.479403
							CHANNELS 3 Xrotation Yrotation Zrotation
							End Site
							{
								OFFSET 0 0 0
							}
						}
					}
				}
			}
		}
	}
	JOINT Spine_virtual
	{
		OFFSET 0.000000 0.000000 0.000000
		CHANNELS 3 Xrotation Yrotation Zrotation
		JOINT Spine
		{
			OFFSET 0.000000 6.876099 0.125700
			CHANNELS 3 Xrotation Yrotation Zrotation
			JOINT Spine1
			{
				OFFSET 0.000000 5.730043 0.104720
				CHANNELS 3 Xrotation Yrotation Zrotation
				JOINT Spine1_split
				{
					OFFSET 0.000000 5.730043 0.104720
					CHANNELS 3 Xrotation Yrotation Zrotation
					JOINT Spine2
					{
						OFFSET 0.000000 5.730043 0.104720
						CHANNELS 3 Xrotation Yrotation Zrotation
						JOINT Neck_virtual
						{
							OFFSET 0.000000 0.000000 0.000000
							CHANNELS 3 Xrotation Yrotation Zrotation
							JOINT Neck
							{
								OFFSET 0.000000 10.314075 0.188496
								CHANNELS 3 Xrotation Yrotation Zrotation
								JOINT Head
								{
									OFFSET 0.000000 7.643700 -2.377400
									CHANNELS 3 Xrotation Yrotation Zrotation
									JOINT HeadTop_End
									{
										OFFSET 0.000000 43.788605 -13.619600
										CHANNELS 3 Xrotation Yrotation Zrotation
										End Site
										{
											OFFSET 0 0 0
										}
									}
								}
							}
						}
						JOINT LeftShoulder_virtual
						{
							OFFSET 0.000000 0.000000 0.000000
							CHANNELS 3 Xrotation Yrotation Zrotation
							JOINT LeftShoulder
							{
								OFFSET 2.196100 4.412489 0.087492
								CHANNELS 3 Xrotation Yrotation Zrotation
								JOINT LeftShoulder_split
								{
									OFFSET 2.196100 4.412489 0.087492
									CHANNELS 3 Xrotation Yrotation Zrotation
									JOINT LeftArm
									{
										OFFSET 8.771219 -2.981674 -0.026999
										CHANNELS 3 Xrotation Yrotation Zrotation
										JOINT LeftForeArm
										{
											OFFSET 8.512804 0.000000 -0.000000
											CHANNELS 3 Xrotation Yrotation Zrotation
											JOINT LeftHand
											{
												OFFSET 18.484802 0.000000 -0.000000
												CHANNELS 3 Xrotation Yrotation Zrotation
												End Site
												{
													OFFSET 0 0 0
												}
											}
										}
									}
								}
							}
						}
						JOINT RightShoulder_virtual
						{
							OFFSET 0.000000 0.000000 0.000000
							CHANNELS 3 Xrotation Yrotation Zrotation
							JOINT RightShoulder
							{
								OFFSET -2.196100 4.412496 0.070690
								CHANNELS 3 Xrotation Yrotation Zrotation
								JOINT RightShoulder_split
								{
									OFFSET -2.196100 4.412496 0.070690
									CHANNELS 3 Xrotation Yrotation Zrotation
									JOINT RightArm
									{
										OFFSET -8.771282 -2.981682 -0.094208
										CHANNELS 3 Xrotation Yrotation Zrotation
										JOINT RightForeArm
										{
											OFFSET -8.494598 0.000000 0.000000
											CHANNELS 3 Xrotation Yrotation Zrotation
											JOINT RightHand
											{
												OFFSET -18.483803 0.000000 0.000001
												CHANNELS 3 Xrotation Yrotation Zrotation
												End Site
												{
													OFFSET 0 0 0
												}
											}
										}
									}
								}
							}
						}
					}
				}
			}
		}
	}
}
MOTION
Frames: 9
Frame Time: 0.03333333
2.910377 27.705114 -5.590731 0.000000 0.000000 0.000000 0.202649 49.612954 -3.038595 -10.073917 2.276704 18.100951 47.022069 -3.953007 5.749550 -26.920023 20.382458 -29.217548 -3.446586 -9.450018 13.416790 0.000000 0.000000 0.000000 3.102826 50.139295 -4.804775 -39.101245 7.587852 -12.298784 41.541552 20.245113 -11.271421 3.134486 -17.779520 37.633598 2.266566 12.367230 -20.281490 0.000000 0.000000 0.000000 -3.307737 60.629868 -0.590873 4.389744 -3.591742 -0.176368 3.265366 -2.426457 1.057902 0.169725 -0.324308 -0.094610 0.000000 0.000000 0.000000 1.667732 -0.126478 0.534961 -4.871529 10.400332 4.587111 -21.491580 -3.326765 -37.620272 0.000000 0.000000 0.000000 0.877038 -2.396408 -0.131854 3.660922 -13.238269 -3.930537 -0.527135 -1.471906 -1.050766 8.125046 -38.715493 -46.961171 167.551739 -64.522570 169.874782 0.000000 0.000000 0.000000 2.202468 -1.040571 0.970556 1.626938 -5.963414 10.633578 -2.792655 11.963135 5.463038 -22.798261 -11.295435 45.132244 -169.054641 60.781942 169.547302 0.000000 0.000000 0.000000 
2.753240 28.557812 -5.482309 0.000000 0.000000 0.000000 0.497411 49.669173 -3.236094 -10.488027 0.363194 18.874968 46.584684 -4.299484 4.962947 -18.554935 18.633524 -30.505192 -2.061468 -9.129528 12.571282 0.000000 0.000000 0.000000 3.394850 50.158314 -4.609505 -37.416268 6.510896 -12.833249 36.496416 21.066163 -10.064404 5.042397 -14.582596 41.240037 -3.706913 13.839267 -20.514142 0.000000 0.000000 0.000000 -2.565530 58.561994 -1.186949 3.540980 -3.715241 0.257031 2.774047 -2.562510 1.145300 -0.045239 -0.072000 -0.144258 0.000000 0.000000 0.000000 1.542167 -0.234587 0.573663 -4.634293 10.393351 4.541870 -21.456631 -3.705109 -38.052230 0.000000 0.000000 0.000000 0.835483 -2.575441 0.078097 3.684454 -13.521741 -3.061120 -1.489741 -1.296235 -0.728900 4.522655 -38.771866 -46.844692 168.325381 -63.749468 170.848808 0.000000 0.000000 0.000000 2.089667 -1.185660 1.023178 1.424552 -5.861935 9.470165 -1.571623 11.526267 3.579591 -25.042743 -10.262925 44.725247 -170.608194 57.934798 170.627783 0.000000 0.000000 0.000000 
2.702170 30.282097 -5.592949 0.000000 0.000000 0.000000 1.172955 49.646739 -3.530412 -10.594734 -2.189765 18.339808 44.813062 -3.911516 4.407462 -7.833252 13.793459 -29.496551 -3.594544 -9.056113 7.922111 0.000000 0.000000 0.000000 4.471887 49.813932 -4.763796 -33.737351 5.396765 -12.300349 28.455413 20.933567 -7.661010 4.862518 -11.892402 39.928323 -3.933900 14.094567 -19.556922 0.000000 0.000000 0.000000 -0.134018 55.544922 -2.835506 2.304903 -3.752347 0.665662 2.456345 -2.863220 1.282050 -0.139163 0.231319 -0.102055 0.000000 0.000000 0.000000 1.362826 -0.430514 0.658464 -3.210616 10.635707 4.340000 -21.705964 -2.637401 -37.082846 0.000000 0.000000 0.000000 0.941814 -2.799355 0.341524 3.691118 -13.394618 -2.192802 -1.203022 -1.114231 -1.632169 -0.501481 -37.943388 -46.727773 169.445327 -62.311993 172.028874 0.000000 0.000000 0.000000 2.182573 -1.405520 1.094590 1.197521 -5.296646 7.777897 -0.166947 9.140521 3.338745 -27.213856 -6.989844 43.216789 -172.101301 55.592122 171.369774 0.000000 0.000000 0.000000 
2.819951 32.290150 -5.830925 0.000000 0.000000 0.000000 1.748161 48.696544 -3.522770 -11.148272 -4.339176 17.233295 43.744476 -3.585499 4.438611 3.342797 7.056796 -26.662463 -11.016519 -8.993366 1.874319 0.000000 0.000000 0.000000 4.833736 48.029241 -4.454553 -29.735372 4.061862 -11.215095 20.981177 19.603724 -5.017815 3.489381 -10.285253 34.673414 0.431208 13.393917 -17.976681 0.000000 0.000000 0.000000 2.516179 52.120067 -4.115419 1.015002 -3.681222 0.875179 2.377853 -3.301002 1.437996 -0.024104 0.446342 -0.030258 0.000000 0.000000 0.000000 1.188540 -0.693209 0.766719 -0.970036 11.055607 4.056614 -22.026178 -0.157048 -34.758365 0.000000 0.000000 0.000000 1.141316 -3.057096 0.606789 3.650530 -12.944516 -1.490138 0.165109 -0.889743 -2.788464 -6.034009 -36.207417 -47.073657 170.513473 -60.915875 172.983256 0.000000 0.000000 0.000000 2.421273 -1.645104 1.202632 1.025842 -4.182346 6.045901 1.134239 6.929454 4.445250 -28.446558 -2.421551 41.607033 -173.340448 54.541536 171.710259 0.000000 0.000000 0.000000 
3.030866 34.136909 -5.964916 0.000000 0.000000 0.000000 1.894809 46.722090 -2.840409 -11.863645 -5.216316 15.265340 43.536961 -4.174476 5.393684 12.606814 0.293805 -23.609633 -22.852315 -8.033641 -3.332844 0.000000 0.000000 0.000000 3.926452 44.075798 -3.302384 -27.002388 2.543227 -10.506071 17.438451 18.049982 -2.894493 2.721005 -9.013533 29.078366 2.878830 12.775672 -16.029460 0.000000 0.000000 0.000000 4.159772 49.057523 -4.129313 0.090669 -3.443083 0.766900 2.545354 -3.762766 1.570214 0.110030 0.532622 -0.028762 0.000000 0.000000 0.000000 1.072481 -0.998873 0.924410 1.421480 11.507395 3.702180 -22.159861 3.392306 -31.213049 0.000000 0.000000 0.000000 1.334637 -3.338879 0.820210 3.584294 -12.193370 -0.891092 1.752023 -0.275965 -3.328959 -11.038056 -33.939487 -47.785185 171.291623 -60.222242 173.526119 0.000000 0.000000 0.000000 2.658575 -1.865209 1.342236 0.973419 -2.456537 4.719453 2.145962 5.817236 5.362589 -28.687717 2.130643 40.602363 -174.253781 55.000720 171.739506 0.000000 0.000000 0.000000 
3.246681 35.511166 -5.923046 0.000000 0.000000 0.000000 1.442670 43.252784 -1.481536 -12.838895 -3.796433 12.378106 44.021993 -4.143163 6.023957 16.605401 -3.368620 -19.926986 -30.687374 -5.921969 -7.965347 0.000000 0.000000 0.000000 2.500361 39.045439 -1.679413 -25.586956 1.177779 -10.636135 18.973489 17.318996 -1.641620 3.528265 -7.731810 25.594461 0.258302 12.506602 -14.124509 0.000000 0.000000 0.000000 4.017966 46.470302 -2.742003 -0.189620 -3.030749 0.318458 2.849035 -4.088970 1.642844 0.172979 0.472944 -0.118942 0.000000 0.000000 0.000000 0.976192 -1.312354 1.063335 3.293252 11.933695 3.334930 -21.958478 7.410806 -26.725772 0.000000 0.000000 0.000000 1.520498 -3.615147 0.913713 3.547479 -11.251463 -0.429165 3.015675 0.167861 -3.011704 -14.326841 -31.339432 -48.670808 171.822110 -60.507785 173.753838 0.000000 0.000000 0.000000 2.818017 -2.065259 1.478078 1.010009 -0.164227 4.084417 2.562967 5.050990 5.895982 -28.045710 5.431145 40.808072 -174.887772 56.771105 171.659579 0.000000 0.000000 0.000000 
3.407488 36.381031 -6.089861 0.000000 0.000000 0.000000 0.462222 37.956997 0.348214 -14.375962 -0.493143 9.813264 44.176574 -2.975091 6.074089 14.830598 -3.025624 -16.976223 -30.432383 -4.103323 -10.238306 0.000000 0.000000 0.000000 1.525546 34.446119 -0.116384 -24.368081 0.119996 -11.548077 23.787481 17.174106 -0.995886 4.340113 -7.145872 24.008485 -4.491439 11.954565 -12.166878 0.000000 0.000000 0.000000 2.587213 43.631860 -0.632423 0.052720 -2.422480 -0.367198 3.130331 -4.235658 1.634680 0.157429 0.355154 -0.219464 0.000000 0.000000 0.000000 0.893502 -1.568601 1.111547 4.498727 12.352645 2.971055 -21.342285 11.385945 -21.737557 0.000000 0.000000 0.000000 1.647141 -3.805391 0.871779 3.587053 -10.079694 -0.038006 3.416686 0.473088 -2.219119 -15.446642 -28.665778 -49.569244 172.251442 -61.876514 173.853805 0.000000 0.000000 0.000000 2.800400 -2.226022 1.484621 1.027756 2.340650 4.126233 2.559946 4.998796 5.867322 -26.920212 6.770268 42.284147 -175.246084 59.289484 171.527114 0.000000 0.000000 0.000000 
3.519938 36.750443 -6.432032 0.000000 0.000000 0.000000 -0.411551 31.931131 2.005097 -16.407617 3.125314 8.272759 42.964492 -1.097794 5.429092 9.930020 0.298149 -15.704060 -19.143183 -3.346767 -11.281135 0.000000 0.000000 0.000000 1.434353 30.532838 1.075480 -22.236125 -0.667254 -13.048235 29.028813 16.858671 -0.643945 3.201027 -7.989062 22.627619 -7.967657 10.763617 -10.061514 0.000000 0.000000 0.000000 0.818787 40.126125 1.288126 0.467571 -1.639791 -1.010306 3.248681 -4.199681 1.483059 0.071687 0.276320 -0.177795 0.000000 0.000000 0.000000 0.809188 -1.703295 1.066906 4.947497 12.765438 2.606401 -20.319191 14.686225 -16.675886 0.000000 0.000000 0.000000 1.610741 -3.871534 0.652680 3.678263 -8.780529 0.197016 2.892357 -0.025009 -1.328241 -14.270902 -26.233370 -50.287025 172.800016 -63.715153 174.058492 0.000000 0.000000 0.000000 2.656182 -2.285955 1.311552 0.933356 4.757299 4.638380 2.401428 5.018656 5.734805 -25.632568 6.609655 44.592471 -175.193970 61.525873 171.254658 0.000000 0.000000 0.000000 
3.651930 36.618237 -6.560808 0.000000 0.000000 0.000000 -0.593131 25.733568 3.065612 -20.178218 5.621485 9.152444 40.842096 -0.242803 4.240328 6.824135 3.668399 -18.311823 -2.223367 -3.438479 -11.180654 0.000000 0.000000 0.000000 1.885852 26.570235 1.978274 -18.996832 -1.287209 -14.813297 32.531867 15.792142 -0.346840 0.743717 -10.336594 20.962503 -10.394809 9.281723 -7.930165 0.000000 0.000000 0.000000 -0.816533 35.757475 2.660754 0.753062 -0.755727 -1.349514 3.189094 -4.038927 1.192955 0.018362 0.120683 -0.084383 0.000000 0.000000 0.000000 0.733623 -1.675114 0.899266 4.745360 13.194956 2.303660 -19.085908 16.729239 -11.878411 0.000000 0.000000 0.000000 1.388411 -3.763704 0.265425 3.750838 -7.623114 0.092378 1.653291 -1.469856 -0.786218 -11.623871 -23.762127 -50.823093 173.870935 -65.193855 174.803843 0.000000 0.000000 0.000000 2.489148 -2.219531 0.970801 0.697392 6.719850 5.423024 1.920922 4.343091 5.666682 -24.416147 5.754438 47.046073 -174.703958 62.942966 170.869695 0.000000 0.000000 0.000000 
